<svg xmlns="http://www.w3.org/2000/svg" xmlns:xlink="http://www.w3.org/1999/xlink" width="500" zoomAndPan="magnify" viewBox="0 0 375 374.999991" height="500" preserveAspectRatio="xMidYMid meet" version="1.2"><defs><clipPath id="ed59e74108"><path d="M 89 35 L 317.664062 35 L 317.664062 348 L 89 348 Z M 89 35 "/></clipPath><clipPath id="155aacd289"><path d="M 56 62 L 296 62 L 296 349 L 56 349 Z M 56 62 "/></clipPath><clipPath id="65e62550c0"><path d="M 55.695312 70.179688 L 223.378906 20.996094 L 317.734375 342.695312 L 150.046875 391.878906 Z M 55.695312 70.179688 "/></clipPath><clipPath id="c565670adb"><path d="M 223.335938 21.007812 L 55.648438 70.191406 L 150.003906 391.890625 L 317.6875 342.707031 Z M 223.335938 21.007812 "/></clipPath><clipPath id="693067e950"><path d="M 87 77 L 103 77 L 103 84 L 87 84 Z M 87 77 "/></clipPath><clipPath id="c6ba27aa5b"><path d="M 55.695312 70.179688 L 223.378906 20.996094 L 317.734375 342.695312 L 150.046875 391.878906 Z M 55.695312 70.179688 "/></clipPath><clipPath id="e1da339dc5"><path d="M 223.335938 21.007812 L 55.648438 70.191406 L 150.003906 391.890625 L 317.6875 342.707031 Z M 223.335938 21.007812 "/></clipPath><clipPath id="478f7a4218"><path d="M 102 83 L 109 83 L 109 89 L 102 89 Z M 102 83 "/></clipPath><clipPath id="03b06a50df"><path d="M 55.695312 70.179688 L 223.378906 20.996094 L 317.734375 342.695312 L 150.046875 391.878906 Z M 55.695312 70.179688 "/></clipPath><clipPath id="8f8086314e"><path d="M 223.335938 21.007812 L 55.648438 70.191406 L 150.003906 391.890625 L 317.6875 342.707031 Z M 223.335938 21.007812 "/></clipPath><clipPath id="12f4d07f0b"><path d="M 191 227 L 210 227 L 210 233 L 191 233 Z M 191 227 "/></clipPath><clipPath id="0657b12c3c"><path d="M 55.695312 70.179688 L 223.378906 20.996094 L 317.734375 342.695312 L 150.046875 391.878906 Z M 55.695312 70.179688 "/></clipPath><clipPath id="a92a36aadb"><path d="M 223.335938 21.007812 L 55.648438 70.191406 L 150.003906 391.890625 L 317.6875 342.707031 Z M 223.335938 21.007812 "/></clipPath><clipPath id="b48ed39e23"><path d="M 209 231 L 217 231 L 217 235 L 209 235 Z M 209 231 "/></clipPath><clipPath id="8f785218ff"><path d="M 55.695312 70.179688 L 223.378906 20.996094 L 317.734375 342.695312 L 150.046875 391.878906 Z M 55.695312 70.179688 "/></clipPath><clipPath id="78af685b42"><path d="M 223.335938 21.007812 L 55.648438 70.191406 L 150.003906 391.890625 L 317.6875 342.707031 Z M 223.335938 21.007812 "/></clipPath><clipPath id="b384c4f3db"><path d="M 194 248 L 219 248 L 219 259 L 194 259 Z M 194 248 "/></clipPath><clipPath id="5ae590d9f7"><path d="M 55.695312 70.179688 L 223.378906 20.996094 L 317.734375 342.695312 L 150.046875 391.878906 Z M 55.695312 70.179688 "/></clipPath><clipPath id="f730298375"><path d="M 223.335938 21.007812 L 55.648438 70.191406 L 150.003906 391.890625 L 317.6875 342.707031 Z M 223.335938 21.007812 "/></clipPath><clipPath id="e21d938759"><path d="M 218 290 L 243 290 L 243 296 L 218 296 Z M 218 290 "/></clipPath><clipPath id="885e6e3924"><path d="M 55.695312 70.179688 L 223.378906 20.996094 L 317.734375 342.695312 L 150.046875 391.878906 Z M 55.695312 70.179688 "/></clipPath><clipPath id="907d5a10df"><path d="M 223.335938 21.007812 L 55.648438 70.191406 L 150.003906 391.890625 L 317.6875 342.707031 Z M 223.335938 21.007812 "/></clipPath><clipPath id="04fc70daf0"><path d="M 92 87 L 100 87 L 100 93 L 92 93 Z M 92 87 "/></clipPath><clipPath id="6dd5f52b0d"><path d="M 55.695312 70.179688 L 223.378906 20.996094 L 317.734375 342.695312 L 150.046875 391.878906 Z M 55.695312 70.179688 "/></clipPath><clipPath id="2ca4461353"><path d="M 223.335938 21.007812 L 55.648438 70.191406 L 150.003906 391.890625 L 317.6875 342.707031 Z M 223.335938 21.007812 "/></clipPath><clipPath id="f8cdc95ce9"><path d="M 265 260 L 275 260 L 275 278 L 265 278 Z M 265 260 "/></clipPath><clipPath id="104b8f02c7"><path d="M 55.695312 70.179688 L 223.378906 20.996094 L 317.734375 342.695312 L 150.046875 391.878906 Z M 55.695312 70.179688 "/></clipPath><clipPath id="16d82cc5dc"><path d="M 223.335938 21.007812 L 55.648438 70.191406 L 150.003906 391.890625 L 317.6875 342.707031 Z M 223.335938 21.007812 "/></clipPath><clipPath id="2166dc420d"><path d="M 275 249 L 279 249 L 279 256 L 275 256 Z M 275 249 "/></clipPath><clipPath id="868a77b7e3"><path d="M 55.695312 70.179688 L 223.378906 20.996094 L 317.734375 342.695312 L 150.046875 391.878906 Z M 55.695312 70.179688 "/></clipPath><clipPath id="fb5df05db8"><path d="M 223.335938 21.007812 L 55.648438 70.191406 L 150.003906 391.890625 L 317.6875 342.707031 Z M 223.335938 21.007812 "/></clipPath><clipPath id="407e8c64a3"><path d="M 149 164 L 183 164 L 183 168 L 149 168 Z M 149 164 "/></clipPath><clipPath id="33f3fcdfae"><path d="M 55.695312 70.179688 L 223.378906 20.996094 L 317.734375 342.695312 L 150.046875 391.878906 Z M 55.695312 70.179688 "/></clipPath><clipPath id="7d1abaceaa"><path d="M 223.335938 21.007812 L 55.648438 70.191406 L 150.003906 391.890625 L 317.6875 342.707031 Z M 223.335938 21.007812 "/></clipPath></defs><g id="f41d5ce709"><path style=" stroke:none;fill-rule:evenodd;fill:#ffffff;fill-opacity:1;" d="M 304.550781 52.054688 C 304.8125 56.683594 301.4375 60.980469 298.855469 65.351562 C 300.699219 60.917969 302.042969 56.4375 304.550781 52.054688 "/><path style=" stroke:none;fill-rule:evenodd;fill:#ffffff;fill-opacity:1;" d="M 297.277344 75.214844 C 297.644531 75.703125 298.355469 75.777344 298.296875 76.433594 C 296.367188 77.011719 293.574219 78.84375 292.253906 77.867188 C 298.796875 74.671875 300.066406 67.292969 304.136719 63.003906 C 304.078125 66.710938 299.304688 71.210938 297.277344 75.214844 "/><path style=" stroke:none;fill-rule:evenodd;fill:#ffffff;fill-opacity:1;" d="M 298.621094 63.21875 C 295.554688 64.496094 292.648438 63.871094 289.585938 65.097656 C 290.578125 64.148438 290.570312 63.117188 291.8125 62.191406 C 292.40625 62.246094 292.128906 62.9375 292.273438 63.359375 C 294.34375 63.871094 296.703125 61.097656 298.621094 63.21875 "/><path style=" stroke:none;fill-rule:evenodd;fill:#ffffff;fill-opacity:1;" d="M 304.839844 70.957031 C 303.320312 73.6875 301.558594 76.394531 299.191406 79.046875 C 300.347656 76.375 302.0625 73.015625 304.839844 70.957031 "/><path style=" stroke:none;fill-rule:evenodd;fill:#ffffff;fill-opacity:1;" d="M 297.585938 66.933594 C 297.75 68.355469 295.84375 69.59375 295.539062 70.972656 C 295.691406 71.789062 296.773438 71.503906 296.535156 72.472656 C 295.640625 73.003906 294.816406 72.773438 293.972656 72.808594 C 292.773438 73.40625 292.609375 74.6875 291.816406 74.871094 C 291.859375 74.359375 292.566406 73.90625 292.648438 73.394531 C 289.445312 72.46875 285.863281 75.84375 282.589844 75.601562 C 287.753906 72.738281 294.589844 73.320312 297.585938 66.933594 "/><path style=" stroke:none;fill-rule:evenodd;fill:#ffffff;fill-opacity:1;" d="M 293.78125 67.015625 C 291.695312 67.757812 289.636719 68.21875 287.5625 68.855469 C 289.128906 67.582031 291.914062 66.335938 293.78125 67.015625 "/><path style=" stroke:none;fill-rule:evenodd;fill:#ffffff;fill-opacity:1;" d="M 298.277344 79.8125 C 298.722656 80.648438 297.914062 81.375 297.085938 82.101562 C 296.679688 81.265625 297.710938 80.558594 298.277344 79.8125 "/><path style=" stroke:none;fill-rule:evenodd;fill:#ffffff;fill-opacity:1;" d="M 285.832031 69.269531 C 285.367188 70.226562 283.769531 70.34375 282.890625 70.695312 C 282.886719 69.777344 285 69.382812 285.832031 69.269531 "/><path style=" stroke:none;fill-rule:evenodd;fill:#ffffff;fill-opacity:1;" d="M 290.808594 78.304688 C 288.804688 80.1875 285.75 80.277344 283.320312 81.722656 C 285.578125 80.488281 288.277344 78.507812 290.808594 78.304688 "/><path style=" stroke:none;fill-rule:evenodd;fill:#ffffff;fill-opacity:1;" d="M 280.53125 84.574219 C 280.695312 84.773438 280.871094 84.976562 281.039062 85.183594 C 280.726562 85.523438 280.433594 85.644531 280.152344 85.664062 C 279.6875 85.246094 280.070312 84.90625 280.53125 84.574219 "/><path style=" stroke:none;fill-rule:evenodd;fill:#ffffff;fill-opacity:1;" d="M 290.578125 103.070312 C 290.289062 105.039062 288.402344 107.546875 287.238281 108.972656 C 287.636719 106.941406 288.863281 104.984375 290.578125 103.070312 "/><path style=" stroke:none;fill-rule:evenodd;fill:#ffffff;fill-opacity:1;" d="M 270.292969 84.085938 C 270.804688 84.695312 269.851562 85.175781 269.300781 85.691406 C 268.734375 85.09375 269.625 84.128906 270.292969 84.085938 "/><path style=" stroke:none;fill-rule:evenodd;fill:#ffffff;fill-opacity:1;" d="M 253.417969 132.871094 C 253.335938 133.6875 252.152344 133.503906 251.644531 133.835938 C 251.730469 133.003906 252.945312 132.859375 253.417969 132.871094 "/><path style=" stroke:none;fill-rule:evenodd;fill:#ffffff;fill-opacity:1;" d="M 253.121094 136.222656 C 252.652344 137.253906 251.0625 137.269531 250.152344 137.933594 C 250.652344 136.628906 252.199219 137.054688 253.121094 136.222656 "/><path style=" stroke:none;fill-rule:evenodd;fill:#ffffff;fill-opacity:1;" d="M 241.824219 125.5 C 241.949219 125.652344 242.074219 125.804688 242.203125 125.957031 C 241.582031 126.996094 240.035156 128.007812 239.007812 128.632812 C 239.566406 127.535156 240.71875 126.121094 241.824219 125.5 "/><path style=" stroke:none;fill-rule:evenodd;fill:#ffffff;fill-opacity:1;" d="M 242.917969 128.980469 C 242.796875 130 241.085938 130.882812 240.132812 131.828125 C 239.886719 130.839844 241.988281 129.402344 242.917969 128.980469 "/><path style=" stroke:none;fill-rule:evenodd;fill:#ffffff;fill-opacity:1;" d="M 245.050781 139.875 C 244.875 140.722656 243.578125 140.695312 242.96875 141.097656 C 243.136719 140.328125 244.457031 140.15625 245.050781 139.875 "/><path style=" stroke:none;fill-rule:evenodd;fill:#ffffff;fill-opacity:1;" d="M 238.175781 133.203125 C 237.871094 135.308594 235.777344 136.636719 233.691406 137.738281 C 233.9375 135.824219 236.503906 134.808594 238.175781 133.203125 "/><path style=" stroke:none;fill-rule:evenodd;fill:#ffffff;fill-opacity:1;" d="M 235.550781 140.578125 C 235.679688 140.730469 235.804688 140.882812 235.933594 141.035156 C 235.574219 141.414062 235.230469 141.527344 234.941406 141.089844 C 235.148438 140.917969 235.351562 140.75 235.550781 140.578125 "/><path style=" stroke:none;fill-rule:evenodd;fill:#ffffff;fill-opacity:1;" d="M 231.855469 158.417969 C 231.914062 159.160156 230.878906 158.992188 230.484375 159.566406 C 230.425781 158.824219 231.460938 158.996094 231.855469 158.417969 "/><path style=" stroke:none;fill-rule:evenodd;fill:#ffffff;fill-opacity:1;" d="M 228.34375 156.699219 C 228.398438 157.035156 227.21875 157.839844 226.871094 157.417969 C 227.367188 157.140625 227.851562 156.976562 228.34375 156.699219 "/><path style=" stroke:none;fill-rule:evenodd;fill:#ffffff;fill-opacity:1;" d="M 229.039062 160.003906 C 228.59375 161.066406 225.746094 162.382812 224.441406 162.554688 C 225.960938 161.851562 227.515625 160.777344 229.039062 160.003906 "/><path style=" stroke:none;fill-rule:evenodd;fill:#ffffff;fill-opacity:1;" d="M 224.289062 162.679688 C 224.457031 163.238281 223.5 163.34375 223.226562 163.566406 C 223.0625 163.007812 224.023438 162.90625 224.289062 162.679688 "/><path style=" stroke:none;fill-rule:evenodd;fill:#ffffff;fill-opacity:1;" d="M 220.503906 160.933594 C 221.117188 161.402344 220.273438 162.039062 219.84375 162 C 219.234375 161.535156 220.074219 160.894531 220.503906 160.933594 "/><path style=" stroke:none;fill-rule:evenodd;fill:#ffffff;fill-opacity:1;" d="M 217.921875 166.199219 C 217.242188 167.574219 214.179688 169.570312 212.671875 169.816406 C 213.957031 168.433594 216.246094 166.988281 217.921875 166.199219 "/><path style=" stroke:none;fill-rule:evenodd;fill:#ffffff;fill-opacity:1;" d="M 206.410156 187.988281 C 205.925781 189.144531 204.308594 189.476562 203.417969 189.980469 C 203.886719 188.976562 205.507812 188.601562 206.410156 187.988281 "/><path style=" stroke:none;fill-rule:evenodd;fill:#ffffff;fill-opacity:1;" d="M 186.792969 221.746094 C 186.128906 222.796875 184.265625 223.757812 183.289062 223.121094 C 184.496094 222.21875 185.652344 221.828125 186.792969 221.746094 "/><path style=" stroke:none;fill-rule:evenodd;fill:#ffffff;fill-opacity:1;" d="M 179.785156 224.503906 C 180.253906 225.328125 178.6875 225.046875 178.289062 225.496094 C 178.261719 224.871094 179.367188 224.902344 179.785156 224.503906 "/><path style=" stroke:none;fill-rule:evenodd;fill:#ffffff;fill-opacity:1;" d="M 166.34375 247.394531 C 166.589844 247.605469 166.417969 247.777344 166.570312 247.976562 C 162.132812 249.3125 157.566406 252.125 153.167969 252.984375 C 157.070312 250.292969 162.054688 249.113281 166.34375 247.394531 "/><path style=" stroke:none;fill-rule:evenodd;fill:#ffffff;fill-opacity:1;" d="M 146.59375 280.992188 C 143.390625 283.105469 139.003906 285.117188 135.324219 287.316406 C 138.683594 284.617188 142.832031 280.554688 146.59375 280.992188 "/><path style=" stroke:none;fill-rule:evenodd;fill:#ffffff;fill-opacity:1;" d="M 143.292969 278.585938 C 143.878906 279.179688 142.882812 279.109375 142.65625 279.378906 C 142.363281 278.816406 142.894531 278.835938 143.292969 278.585938 "/><path style=" stroke:none;fill-rule:evenodd;fill:#ffffff;fill-opacity:1;" d="M 144.753906 287.449219 C 145.398438 288.148438 144.414062 288.195312 143.96875 288.371094 C 143.621094 287.945312 144.382812 287.40625 144.753906 287.449219 "/><path style=" stroke:none;fill-rule:evenodd;fill:#ffffff;fill-opacity:1;" d="M 130.046875 288.113281 C 129.984375 289.3125 127.804688 289.804688 126.925781 289.953125 C 127.445312 288.925781 129.136719 288.328125 130.046875 288.113281 "/><path style=" stroke:none;fill-rule:evenodd;fill:#ffffff;fill-opacity:1;" d="M 128.222656 291.195312 C 128.414062 292.15625 126.304688 293.144531 125.6875 292.800781 C 126.5625 291.925781 127.398438 291.488281 128.222656 291.195312 "/><path style=" stroke:none;fill-rule:evenodd;fill:#ffffff;fill-opacity:1;" d="M 132.160156 303.941406 C 132.410156 304.144531 132.238281 304.324219 132.390625 304.523438 C 131.398438 304.589844 130.308594 305.8125 129.371094 305.242188 C 130.304688 304.757812 131.253906 304.09375 132.160156 303.941406 "/><path style=" stroke:none;fill-rule:evenodd;fill:#ffffff;fill-opacity:1;" d="M 133.9375 315.644531 C 134.191406 315.855469 134.011719 316.023438 134.171875 316.226562 C 133.796875 316.726562 133.503906 316.339844 133.128906 316.839844 C 132.660156 316.113281 133.421875 316.039062 133.9375 315.644531 "/><path style=" stroke:none;fill-rule:evenodd;fill:#ffffff;fill-opacity:1;" d="M 118.226562 297.492188 C 118.417969 298.359375 116.574219 299.375 115.996094 298.84375 C 116.773438 298.019531 117.496094 297.824219 118.226562 297.492188 "/><path style=" stroke:none;fill-rule:evenodd;fill:#ffffff;fill-opacity:1;" d="M 131.347656 317.8125 C 131.648438 318.375 131.113281 318.347656 130.71875 318.601562 C 130.410156 318.199219 130.984375 317.765625 131.347656 317.8125 "/><path style=" stroke:none;fill-rule:evenodd;fill:#ffffff;fill-opacity:1;" d="M 130.003906 318.675781 C 130.050781 319.601562 127.910156 320.984375 127.089844 321.375 C 126.925781 321.097656 126.726562 321.234375 126.558594 321.046875 C 125.921875 319.34375 129.046875 318.523438 130.003906 318.675781 "/><path style=" stroke:none;fill-rule:evenodd;fill:#ffffff;fill-opacity:1;" d="M 292.742188 80.300781 C 292.503906 81.796875 294.0625 80.871094 294.703125 82.027344 C 292.777344 82.804688 289.691406 83.621094 287.335938 84.046875 C 288.328125 83.375 291.332031 81.882812 292.742188 80.300781 "/><path style=" stroke:none;fill-rule:evenodd;fill:#ffffff;fill-opacity:1;" d="M 236.394531 143.753906 C 236.863281 143.871094 235.074219 144.550781 234.621094 144.722656 C 234.707031 143.851562 235.902344 143.953125 236.394531 143.753906 "/><g clip-rule="nonzero" clip-path="url(#ed59e74108)"><path style=" stroke:none;fill-rule:evenodd;fill:#ffffff;fill-opacity:1;" d="M 93.273438 331.050781 C 93.070312 331.78125 93.011719 332.523438 93.351562 333.304688 C 94.222656 332.203125 95.980469 331.851562 95.964844 330.863281 C 95.09375 330.625 94.230469 330.328125 93.273438 331.050781 Z M 101.972656 337.738281 C 102.453125 338.269531 103.792969 337.234375 103.902344 336.644531 C 103.257812 337.015625 102.652344 336.984375 101.972656 337.738281 Z M 97.890625 329.769531 C 98.277344 329.867188 99.320312 329.515625 98.957031 328.875 C 98.554688 328.953125 97.539062 329.074219 97.890625 329.769531 Z M 94.359375 328.328125 C 95.804688 327.191406 98.21875 327.371094 98.847656 325.34375 C 98.722656 325.191406 98.59375 325.039062 98.46875 324.886719 C 97.195312 326.375 94.289062 326.824219 94.359375 328.328125 Z M 94.53125 323.273438 C 95.277344 324.25 97.867188 322.898438 96.785156 321.640625 C 95.746094 322.101562 94.984375 322.117188 94.53125 323.273438 Z M 102.796875 331.613281 C 103.476562 330.800781 105.433594 330.9375 105.210938 329.851562 C 104.503906 330.355469 103.078125 330.695312 102.796875 331.613281 Z M 113.894531 339.921875 C 114.503906 339.714844 115.089844 339.703125 115.109375 338.90625 C 114.691406 338.945312 113.539062 339.210938 113.894531 339.921875 Z M 104.074219 333.132812 C 105.40625 332.207031 107.886719 332.378906 108.363281 330.835938 C 107.015625 331.691406 105.023438 331.441406 104.074219 333.132812 Z M 104.332031 336.535156 C 106.246094 336.175781 108.332031 333.808594 110.125 334.796875 C 109.082031 336.46875 107.789062 338.453125 105.613281 339.609375 C 108.304688 339.457031 111.957031 336.851562 114.363281 334.605469 C 111.160156 331.390625 107.375 331.757812 104.332031 336.535156 Z M 107.46875 328.222656 C 107.664062 328.453125 108.875 327.609375 108.253906 327.308594 C 108.019531 327.539062 106.875 327.628906 107.46875 328.222656 Z M 114.777344 336.335938 C 115.160156 336.921875 116.953125 336.191406 116.550781 335.371094 C 115.90625 335.390625 115.09375 335.574219 114.777344 336.335938 Z M 106.5 302.644531 C 108.5 301.828125 110.578125 300.105469 112.5625 299.378906 C 111.507812 299.03125 112.371094 298.3125 111.878906 297.628906 C 109.722656 297.992188 107.296875 300.710938 106.5 302.644531 Z M 123.527344 305.988281 C 122 304.507812 120.960938 306.363281 119.492188 307.039062 C 114.285156 309.425781 100.71875 315.648438 101.6875 321.9375 C 102.703125 328.53125 108.929688 321.472656 111.195312 322.777344 C 113.425781 324.070312 111.675781 328.015625 113.75 330.472656 C 114.722656 330.597656 115.722656 330.4375 116.621094 331.429688 C 125.386719 325.878906 122.707031 315.753906 122.363281 307.996094 C 123.394531 307.382812 123.371094 306.675781 123.527344 305.988281 Z M 130.863281 275.792969 C 131.226562 275.835938 131.988281 275.292969 131.644531 274.875 C 131.277344 274.832031 130.511719 275.371094 130.863281 275.792969 Z M 147.652344 251.648438 C 150.1875 249.152344 152.625 246.648438 154.238281 244.066406 C 151.292969 245.980469 148.703125 249.101562 147.652344 251.648438 Z M 167.988281 257.394531 C 168.488281 257.019531 168.910156 256.636719 168.796875 256.203125 C 168.296875 256.582031 167.875 256.96875 167.988281 257.394531 Z M 160.355469 240.246094 C 160.816406 240.945312 162.148438 240.097656 162.257812 239.429688 C 161.707031 239.085938 160.578125 239.34375 160.355469 240.246094 Z M 207.15625 193.835938 C 199.652344 197.867188 187.066406 202.617188 182.855469 210.546875 C 185.347656 209.46875 187.910156 207.53125 190.34375 207.128906 C 189.429688 208.039062 187.265625 208.800781 188.011719 209.597656 C 182.140625 211.394531 175.96875 217.25 174.015625 222.859375 C 178.480469 220.160156 182.84375 218.558594 187.210938 216.996094 C 181.714844 220.960938 173.03125 222.175781 170.007812 228.28125 C 171.425781 228.253906 173.765625 226.214844 174.632812 227 C 171.042969 228.734375 165.414062 231.078125 165.019531 235.304688 C 170.113281 233.511719 176.125 229.714844 180.65625 228.949219 C 175.378906 231.804688 168.875 234.714844 163.097656 237.949219 C 164.1875 241.546875 170.117188 235.992188 172.339844 236.941406 C 166.058594 240.011719 158.25 240.898438 154.046875 247.851562 C 160 246.867188 166.273438 242.355469 172.195312 241.714844 C 164.816406 246.1875 153.707031 246.796875 148.800781 254.566406 C 150.09375 254.289062 151.503906 252.699219 152.710938 253.371094 C 149.941406 255.808594 146.105469 256.53125 144.59375 259.125 C 150.726562 258.289062 157.210938 253.460938 163.304688 253.039062 C 156.5 257.085938 145.566406 257.398438 140.289062 264.800781 C 144.964844 264.988281 150.046875 260.597656 154.707031 261.007812 C 148.394531 263.28125 141.648438 265.617188 136.207031 271.058594 C 138.492188 271.5625 141.578125 267.460938 144.183594 268.523438 C 141.058594 270.4375 136.75 273.226562 134.289062 275.25 C 137.320312 274.964844 141.394531 271.300781 143.808594 272.71875 C 140.496094 274.660156 135.144531 274.558594 133.429688 278.558594 C 132.386719 278.929688 130.894531 278.597656 130.210938 279.960938 C 131.433594 282.003906 133.128906 278.777344 134.398438 280.335938 C 128.265625 283.226562 120.617188 285.480469 115.59375 290.636719 C 118.875 290.753906 121.511719 288.402344 124.863281 287.796875 C 123.007812 289.960938 118.714844 292.6875 116.160156 292.234375 C 115.539062 293.070312 115.0625 293.917969 114.664062 294.777344 C 116.488281 294.855469 118.511719 292.699219 120.300781 293.167969 C 120.9375 293.597656 119.933594 293.882812 120.480469 294.308594 C 121.703125 293.75 122.957031 292.855469 124.039062 293.921875 C 121.433594 296.226562 117.863281 295.808594 114.777344 298.308594 C 114.546875 299.0625 115.902344 298.96875 115.664062 299.375 C 114.421875 300.464844 112.515625 301.292969 111.707031 302.683594 C 112.183594 303.910156 113.371094 302.976562 113.4375 303.824219 C 111.503906 305.386719 108.949219 305.851562 107.476562 307.519531 C 111.722656 308.34375 116.609375 301.964844 120.949219 301.675781 C 120.757812 302.492188 121.519531 302.640625 122.101562 303.046875 C 127.441406 301.046875 132.90625 297.679688 138.242188 295.742188 C 134.878906 298.699219 130.46875 299.726562 126.671875 302.320312 C 126.921875 304.785156 126.476562 307.1875 126.582031 309.640625 C 128.550781 309.179688 130.675781 306.90625 132.574219 307.210938 C 131.566406 309.257812 128.476562 309.585938 126.613281 310.910156 C 126.222656 312.796875 124.96875 314.609375 125.964844 316.628906 C 128.625 314.894531 131.6875 312.714844 133.878906 311.554688 C 131.871094 314.054688 129.335938 318.414062 125.6875 318.148438 C 126.394531 320.902344 124.347656 323.960938 126.085938 326.355469 C 124.128906 328.296875 122.375 330.25 123.429688 332.457031 C 122.375 332.679688 121.402344 332.015625 120.234375 333.582031 C 120.179688 334.179688 121.324219 334.316406 120.945312 335.054688 C 120.605469 336.113281 118.890625 335.898438 118.507812 337.09375 C 122.160156 337.5625 124.71875 332.355469 128.535156 330.519531 C 138.667969 313.199219 145.53125 295.597656 154.59375 278.183594 C 153.742188 274.386719 158.199219 269.257812 160.941406 265.363281 C 167.25 256.410156 171.03125 244.179688 178.359375 235.785156 C 176.707031 235.347656 174.941406 236.175781 173.230469 236.453125 C 183.292969 234.175781 186.300781 222.867188 192.847656 215.378906 C 191.25 214.367188 189.332031 216.945312 187.667969 216.609375 C 193.308594 214.546875 196.792969 210.550781 199.765625 205.710938 C 199.097656 204.726562 198.261719 205.722656 197.527344 205.515625 C 198.980469 203.839844 201.171875 203.875 201.761719 202.230469 C 198.976562 201.394531 195.796875 204.925781 192.878906 205.523438 C 198.449219 202.027344 205.773438 200.375 207.15625 193.835938 Z M 210.714844 193.445312 C 211.410156 192.523438 212.339844 191.617188 212.511719 190.644531 C 211.808594 191.570312 210.757812 192.464844 210.714844 193.445312 Z M 248.324219 152.136719 C 253.257812 152.183594 259.953125 149.171875 264.246094 145.804688 C 258.910156 148.214844 253.632812 150.023438 248.324219 152.136719 Z M 303.8125 104.671875 C 305.410156 102.039062 307.308594 99.4375 307.761719 96.710938 C 306.25 99.34375 304.152344 101.929688 303.8125 104.671875 Z M 274.542969 137.707031 C 283.890625 132.988281 294.960938 119.199219 298.113281 111.769531 C 305.308594 94.796875 315.035156 75 314.03125 57.832031 C 311.375 52.773438 308.203125 36.894531 300.324219 37.738281 C 299.023438 37.875 296.53125 38.488281 295.296875 38.839844 C 287.332031 41.101562 275.625 46.125 268.523438 51.671875 C 257.488281 60.289062 248.25 71.355469 241.675781 81.121094 C 236.566406 88.726562 231.777344 101.550781 231.699219 109.390625 C 231.628906 117.046875 231.148438 126.023438 233.855469 132.683594 C 235.507812 132.140625 237.445312 129.320312 238.675781 129.164062 C 237.019531 131.476562 234.757812 132.460938 233.226562 135.023438 C 232.425781 136.359375 233.125 138.488281 232.402344 139.59375 C 230.679688 142.21875 228.515625 143.382812 227.207031 145.75 C 221.078125 156.816406 213.636719 166.855469 206.511719 177.296875 C 208.925781 176.5625 211.476562 174.277344 213.847656 174.003906 C 209.984375 176.824219 202.496094 179.242188 202.261719 183.960938 C 207.925781 180.992188 213.714844 176.582031 219.289062 174.628906 C 211.121094 180.25 198.832031 184.777344 195.320312 193.910156 C 197.878906 192.539062 200.417969 191.457031 202.984375 190.082031 C 197.945312 193.980469 189.140625 197.367188 188.429688 203.296875 C 197.167969 197.847656 208.867188 193.933594 214.582031 184.773438 C 212.664062 184.195312 210.460938 186.808594 208.460938 187.050781 C 214.28125 183.757812 220.976562 178.9375 224.085938 172.945312 C 222.835938 172.222656 221.359375 174.003906 220.050781 173.992188 C 227.699219 170.148438 231.148438 162.90625 236.808594 156.605469 C 235.832031 155.378906 234.484375 158.378906 233.476562 157.574219 C 236.542969 155.023438 242.6875 153.316406 243.214844 149.425781 C 253.929688 145.816406 263.375 143.335938 274.542969 137.707031 Z M 173.824219 217.070312 C 173.125 216.480469 172.195312 218.503906 171.539062 217.429688 C 182.125 208.71875 190.027344 194.945312 198.601562 183.917969 C 210.195312 169.015625 222.328125 152.460938 229.265625 136.785156 C 231.234375 132.347656 229.507812 124.335938 229.109375 119.585938 C 228.410156 111.324219 229.050781 102.324219 232.203125 94.222656 C 233.179688 91.710938 234.632812 89.734375 235.34375 87.457031 C 235.914062 85.617188 235.714844 83.519531 236.421875 81.636719 C 243.765625 62.082031 274.773438 39.757812 294.019531 35.765625 C 298.203125 34.902344 304.433594 34.636719 307.921875 39.398438 C 312.972656 46.289062 317.003906 54.628906 317.265625 61.078125 C 317.5625 68.417969 315.203125 79.351562 313.074219 87.605469 C 308.480469 105.449219 298.859375 123.242188 278.023438 138.15625 C 269.226562 144.449219 261.351562 150.550781 252.167969 153.324219 C 249.101562 154.246094 245.175781 153.582031 242.316406 156.390625 C 240.65625 158.027344 240.148438 160.117188 237.808594 162.753906 C 234.941406 165.984375 232.675781 170.023438 229.953125 173.464844 C 221.480469 184.167969 213.9375 194.398438 205.730469 205.113281 C 199.066406 213.824219 194.082031 223.8125 187.367188 232.644531 C 180.679688 241.445312 175.25 251.152344 169.164062 260.039062 C 162.8125 269.308594 156.734375 278.011719 152.351562 287.5625 C 146.019531 301.355469 140.496094 315.121094 133.179688 328.957031 C 125.890625 339.242188 115.671875 349.644531 105.144531 346.46875 C 99.652344 344.8125 92.179688 341.265625 90.054688 334 C 88.601562 329.054688 90.078125 316.566406 93.15625 311.738281 C 102.191406 297.574219 117.394531 285.109375 129.175781 270.996094 C 136.027344 262.773438 142.007812 253.875 148.707031 246.109375 C 157.628906 235.765625 167.328125 227.222656 173.824219 217.070312 "/></g><path style=" stroke:none;fill-rule:evenodd;fill:#ffffff;fill-opacity:1;" d="M 253.0625 119.457031 C 253.460938 119.257812 254.355469 119 254 118.414062 C 253.761719 118.769531 252.839844 119.0625 253.0625 119.457031 Z M 243.332031 105.351562 C 243.800781 105.566406 244.421875 104.613281 244.265625 104.308594 C 243.78125 104.167969 242.816406 104.695312 243.332031 105.351562 Z M 263.726562 127.871094 C 263.898438 127.792969 264.707031 128.011719 264.386719 128.351562 C 263.875 128.726562 262.636719 129.140625 262.558594 129.875 C 263.492188 129.421875 264.402344 129.179688 265.375 128.296875 C 264.84375 127.78125 265.660156 127.382812 264.945312 126.851562 C 264.628906 127.058594 263.605469 127.304688 263.726562 127.871094 Z M 253.273438 121.867188 C 255.101562 122.117188 258.667969 120.902344 259.082031 118.304688 C 256.945312 118.867188 254.855469 120.582031 253.273438 121.867188 Z M 262.371094 125.640625 C 263.855469 125.335938 265.363281 124.773438 266.914062 123.648438 C 266.734375 123.160156 267.304688 122.742188 266.761719 122.222656 C 265.332031 122.429688 261.890625 123.492188 262.371094 125.640625 Z M 251.058594 108.71875 C 251.410156 109.21875 251.296875 109.675781 251.492188 110.164062 C 252.726562 109.855469 255.675781 107.75 255.347656 106.421875 C 253.9375 106.96875 252.542969 107.296875 251.058594 108.71875 Z M 262.71875 120.175781 C 263.40625 121.148438 265.886719 118.980469 265.433594 118.164062 C 264.492188 118.515625 262.5 118.808594 262.71875 120.175781 Z M 258.648438 116.851562 C 260.132812 116.707031 263.363281 115.105469 263.339844 113.1875 C 261.730469 113.292969 258.5 115.15625 258.648438 116.851562 Z M 268.539062 121.257812 C 269.007812 122.0625 270.066406 120.84375 269.882812 120.390625 C 269.304688 120.445312 268.816406 120.617188 268.539062 121.257812 Z M 246.527344 104.226562 C 249.503906 102.882812 251.867188 99.585938 253.070312 97.203125 C 249.828125 98.921875 247.78125 101.628906 246.527344 104.226562 Z M 251.023438 104.347656 C 251.359375 104.289062 251.65625 104.652344 251.96875 104.851562 C 253.417969 103.855469 255.558594 101.824219 255.890625 100.269531 C 254.574219 101.773438 251.105469 102.046875 251.023438 104.347656 Z M 255.007812 114.980469 C 258.160156 115.5625 261.605469 110.457031 262.542969 107.90625 C 259.242188 108.644531 257.328125 112.507812 255.007812 114.980469 Z M 266.046875 120.75 C 268.492188 120.402344 269.515625 117.648438 270.835938 115.964844 C 270.707031 115.8125 270.582031 115.660156 270.453125 115.507812 C 268.472656 116.429688 266.078125 118.824219 266.046875 120.75 Z M 265.804688 126.648438 C 269.835938 125.949219 275.679688 124.171875 278.59375 120.597656 C 274.34375 122.527344 270.136719 123.878906 265.804688 126.648438 Z M 253.363281 90.75 C 253.796875 90.273438 254.84375 89.847656 254.472656 89.300781 C 254.015625 89.496094 252.65625 90.070312 253.363281 90.75 Z M 266.941406 112.238281 C 266.511719 112.375 266.136719 111.8125 265.671875 112.269531 C 265.261719 114.25 262.765625 116.050781 262.484375 118.042969 C 266.890625 116.867188 270.25 113.007812 271.304688 109.105469 C 269.839844 109.355469 267.300781 110.488281 266.941406 112.238281 Z M 250.046875 86.792969 C 250.613281 86.234375 251.726562 85.722656 251.1875 85.066406 C 250.511719 85.617188 249.890625 86.167969 250.046875 86.792969 Z M 252.59375 88.289062 C 252.875 88.9375 254.039062 87.695312 253.9375 87.421875 C 253.496094 87.632812 253.058594 87.78125 252.59375 88.289062 Z M 271.222656 117.972656 C 273.316406 117.515625 276.0625 114.679688 276.191406 112.78125 C 273.796875 113.457031 271.152344 115.722656 271.222656 117.972656 Z M 272.660156 112.890625 C 273.492188 112.472656 274.640625 111.171875 274.589844 110.238281 C 273.640625 111.097656 272.652344 111.949219 272.660156 112.890625 Z M 275.019531 110.136719 C 275.484375 109.757812 275.679688 109.351562 275.546875 108.921875 C 275.078125 109.296875 274.472656 109.671875 275.019531 110.136719 Z M 262.445312 112.121094 C 265.953125 111.304688 270.226562 106.835938 271.21875 103.746094 C 267.539062 104.824219 262.164062 108.121094 262.445312 112.121094 Z M 262.816406 106.378906 C 265.449219 105.769531 267.652344 102.214844 268.445312 100.121094 C 265.675781 101.109375 264.429688 104.375 262.816406 106.378906 Z M 255.667969 102.789062 C 256.066406 103.445312 257.289062 103 257.808594 104.101562 C 260.789062 101.269531 263.824219 98.4375 265.050781 95.453125 C 261.46875 95.980469 257.824219 99.648438 255.667969 102.789062 Z M 272.425781 110.753906 C 273.332031 110.0625 275.253906 108.425781 275.140625 107.195312 C 273.214844 107.21875 272.398438 109.351562 272.425781 110.753906 Z M 253.503906 100.203125 C 257.75 98.507812 262.726562 94.503906 264.507812 90.476562 C 259.859375 91.328125 254.851562 95.890625 253.503906 100.203125 Z M 269.882812 98.132812 C 270.808594 97.464844 271.265625 96.757812 271.480469 96.023438 C 270.796875 96.714844 269.453125 97.34375 269.882812 98.132812 Z M 258.609375 87.132812 C 258.203125 87.660156 259.320312 88.320312 258.738281 88.832031 C 255.832031 90.058594 253.195312 92.359375 251.15625 94.921875 C 255.660156 94.601562 260.945312 89.570312 262.566406 85.371094 C 261.257812 85.890625 259.960938 86.1875 258.609375 87.132812 Z M 275.925781 118.953125 C 275.984375 118.253906 277.097656 117.648438 276.53125 116.894531 C 274.027344 117.433594 271.4375 120.328125 270.113281 122.519531 C 272.128906 123.1875 273.941406 120.863281 275.898438 119.234375 C 275.992188 119.613281 275.785156 120.082031 276.382812 120.121094 C 279.886719 119.03125 284.394531 116.382812 285.917969 112.65625 C 282.019531 113.902344 278.285156 115.511719 275.925781 118.953125 Z M 257.132812 86.296875 C 258.417969 85.710938 261.0625 83.300781 261.34375 81.738281 C 259.496094 82.574219 256.421875 84.355469 257.132812 86.296875 Z M 261.929688 81.511719 C 262.511719 80.90625 263.773438 80.363281 263.214844 79.652344 C 262.421875 79.464844 261 80.71875 261.929688 81.511719 Z M 261.5625 101.476562 C 261.402344 101.886719 261.9375 102.359375 261.871094 102.777344 C 259.019531 104.703125 255.816406 107.507812 255.023438 110.054688 C 258.816406 109.421875 261.566406 105.871094 264.128906 102.691406 C 263.828125 101.726562 262.617188 102.933594 262.785156 102.011719 C 267.527344 99.921875 270.453125 94.988281 273.882812 91.167969 C 273.757812 91.015625 273.632812 90.863281 273.503906 90.710938 C 267.957031 92.054688 265.460938 97.359375 261.5625 101.476562 Z M 262.390625 95.351562 C 266.253906 94.496094 270.007812 90.785156 271.695312 87.304688 C 267.695312 87.503906 263.570312 91.710938 262.390625 95.351562 Z M 261.375 84.5625 C 265.203125 84 267.800781 79.886719 270.226562 76.894531 C 266.535156 76.066406 263.085938 81.875 261.375 84.5625 Z M 259.203125 78.875 C 258.871094 78.421875 259.765625 78.078125 259.175781 77.605469 C 257.757812 79.027344 256.304688 80.445312 256.949219 82.054688 C 256.125 82.433594 254.960938 83.164062 255.503906 84.039062 C 259.125 78.945312 264.949219 79.363281 268.644531 74.078125 C 268.515625 73.925781 268.386719 73.777344 268.261719 73.625 C 264.96875 74.859375 261.519531 75.953125 259.203125 78.875 Z M 269.65625 108.679688 C 273.398438 108.148438 274.492188 103.3125 276.960938 102.566406 C 277.300781 103.53125 275.292969 104.292969 276.148438 105.3125 C 278.550781 105.011719 279.410156 101.421875 281.449219 101.132812 C 281.8125 101.683594 280.898438 102.113281 281.457031 102.683594 C 284.96875 101.457031 289.332031 99.664062 291.21875 95.804688 C 284.226562 97.101562 272.605469 100.671875 269.65625 108.679688 Z M 269.027344 76.082031 C 271.152344 75.816406 273.375 73.484375 274.632812 71.652344 C 274.507812 71.5 274.378906 71.347656 274.253906 71.195312 C 272.265625 71.738281 268.964844 73.914062 269.027344 76.082031 Z M 267.046875 63.515625 C 267.457031 63.125 268.199219 62.773438 267.855469 62.320312 C 267.371094 62.292969 266.890625 63.058594 267.046875 63.515625 Z M 260.792969 75.214844 C 265.484375 74.527344 272.414062 72.183594 275.082031 66.625 C 270.339844 68.382812 263.363281 69.589844 260.792969 75.214844 Z M 272.003906 63.25 C 272.449219 63.019531 273.585938 63.21875 273.625 62.40625 C 273.15625 62.171875 271.699219 62.398438 272.003906 63.25 Z M 290.414062 98.546875 C 291.445312 98.894531 294.378906 96.660156 293.871094 99.277344 C 287.429688 101.320312 276.484375 103.367188 275.578125 111.742188 C 278.421875 111.71875 279.691406 107.558594 282.027344 107.378906 C 282.554688 107.851562 281.792969 108.207031 282.328125 108.679688 C 283.070312 108.804688 283.898438 107.941406 284.570312 108.875 C 283.886719 109.816406 282.199219 110.144531 281.371094 111.550781 C 280.921875 111.375 280.492188 110.839844 280.023438 110.867188 C 278.386719 112.269531 276.699219 113.667969 276.960938 115.242188 C 278.5625 115.089844 278.976562 113.304688 280.460938 112.3125 C 280.933594 112.726562 280.625 113.1875 281.222656 113.226562 C 292.167969 110.734375 297.621094 98.402344 300.203125 89.84375 C 298.332031 90.574219 298.511719 92.558594 296.753906 93.761719 C 296.441406 91.664062 298.941406 89.824219 298.699219 87.738281 C 295.460938 90.738281 292.316406 94.960938 290.414062 98.546875 Z M 272.25 60.457031 C 273.605469 58.839844 276.414062 57.347656 276.480469 55.617188 C 274.703125 56.519531 272.964844 58.679688 272.25 60.457031 Z M 286.25 50.292969 C 286.917969 50.203125 287.59375 49.996094 288.304688 49.347656 C 288.152344 49.144531 288.324219 48.96875 288.074219 48.761719 C 287.582031 49.375 285.855469 49.375 286.25 50.292969 Z M 292.824219 47.636719 C 293.601562 47.378906 295.117188 47.144531 295.488281 46.183594 C 294.617188 46.195312 292.953125 46.550781 292.824219 47.636719 Z M 300.308594 42.664062 C 300.046875 44.8125 297.078125 45.003906 295.917969 46.082031 C 296.109375 46.65625 297.648438 45.625 298.308594 46.152344 C 299.167969 46.886719 298.785156 47.507812 299.253906 48.207031 C 300.449219 48.730469 300.773438 46.351562 302.144531 47.335938 C 303.011719 50.5625 298.347656 55.5 295.683594 53.519531 C 296.945312 52.539062 298.113281 52.613281 299.335938 52.015625 C 298.578125 49.125 294.917969 52.265625 293.085938 51.039062 C 293.75 49.773438 295.417969 49.863281 296.507812 48.945312 C 291.359375 47.199219 286.921875 53.167969 281.5625 57.058594 C 281.523438 55.550781 284.25 54.289062 284.757812 52.835938 C 281.246094 53.558594 277.605469 58.855469 275.097656 61.691406 C 277.660156 62.871094 278.085938 58.636719 280.652344 57.824219 C 280.613281 58.476562 279.507812 59.035156 279.636719 59.707031 C 280.886719 60.460938 282.4375 57.824219 283.652344 58.933594 C 278.242188 62.617188 270.402344 63.308594 265.328125 68.570312 C 269.90625 68.285156 274.667969 65.953125 279.515625 62.648438 C 285.871094 62.503906 292.722656 56.664062 299.019531 57.199219 C 290.972656 60.316406 279.804688 61.417969 273.917969 70.179688 C 277.507812 71.046875 279.382812 63.371094 282.292969 64.730469 C 283.035156 66.46875 279.582031 66.242188 280.035156 67.90625 C 282.796875 67.496094 285.691406 65.597656 288.4375 65.273438 C 284.773438 68.058594 277.765625 67.828125 275.222656 72.972656 C 277.042969 73.578125 279.109375 71.53125 281.007812 71.234375 C 276.539062 73.285156 270.445312 75.929688 268.273438 81.371094 C 269.953125 81.554688 271.808594 79.640625 273.503906 79.582031 C 268.785156 82.03125 262.699219 85.164062 260.824219 90.710938 C 263.109375 90.226562 265.582031 89.328125 267.628906 87.085938 C 272.203125 87.957031 277.160156 82.011719 279.269531 78.121094 C 278.53125 77.433594 277.667969 78.1875 276.859375 78.328125 C 278.074219 77.347656 280.574219 75.5625 282.109375 76.261719 C 280.054688 78.707031 277.738281 81.132812 276.382812 83.640625 C 276.84375 84.382812 278.207031 83.152344 278.191406 83.941406 C 274.632812 85.082031 272.015625 87.53125 270.964844 90.765625 C 273.632812 90.390625 276.371094 88.121094 278.828125 86.253906 C 279.472656 85.660156 279.300781 86.785156 279.464844 87.015625 C 280.5 87.027344 281.632812 85.855469 282.664062 85.886719 C 275.355469 89.597656 272.238281 98.097656 267.816406 104.007812 C 270.332031 103.726562 273.683594 101.679688 275.527344 99.621094 C 276.222656 99.03125 275.984375 100.152344 276.445312 100.40625 C 281.167969 98.761719 285.496094 95.707031 289.945312 94.28125 C 295.480469 92.507812 298.277344 85.640625 301.910156 80.128906 C 304.253906 76.582031 305.089844 70.710938 309.691406 70.257812 C 308.871094 71.742188 305.691406 72.738281 307.441406 74.988281 C 304.734375 76.671875 304.003906 79.375 303.183594 81.652344 C 303.554688 82.21875 304.0625 81.328125 304.402344 82.183594 C 302.335938 86.039062 302.5625 90.101562 300.539062 93.957031 C 302.167969 92.644531 302.664062 90.011719 304.566406 88.257812 C 304.386719 92.941406 299.714844 97.636719 296.136719 102.296875 C 292.625 106.875 288.855469 111.6875 286.183594 116.0625 C 285.472656 116.613281 284.847656 116.273438 284.152344 116.726562 C 283.394531 119.035156 280.761719 119.507812 279.335938 121.792969 C 279.273438 122.4375 280.027344 122.046875 280.375 122.730469 C 279.746094 125.742188 275.734375 124.351562 273.351562 127.320312 C 272.894531 127.835938 273.878906 128.488281 273.480469 129.019531 C 267.875 130.792969 262.230469 133.035156 256.601562 135.125 C 256.644531 134.296875 257.875 134.410156 257.996094 133.699219 C 255.144531 132.507812 252.296875 131.214844 249.472656 129.703125 C 248.53125 131.628906 246.796875 130.839844 245.542969 131.1875 C 245.757812 130.285156 247.804688 129.375 248.003906 128.867188 C 246.675781 125.617188 243.433594 123.707031 241.402344 120.675781 C 240.5625 120.679688 240.152344 122.316406 239.144531 122.304688 C 238.847656 121.480469 240.164062 120.796875 240.617188 120.042969 C 240.328125 119.074219 239.878906 118.097656 239.183594 117.097656 C 238.492188 116.777344 238.441406 118.414062 237.6875 118.09375 C 237.292969 117.164062 238.382812 116.371094 238.90625 115.527344 C 235.09375 95.558594 247.613281 77.046875 265.617188 59.023438 C 265.613281 58.261719 264.578125 58.90625 264.140625 58.183594 C 264.53125 57.375 264.675781 56.542969 265.757812 55.792969 C 266.464844 55.882812 267.066406 56.605469 267.03125 57.316406 C 278.390625 49.464844 289.90625 39.78125 300.308594 42.664062 "/><g clip-rule="nonzero" clip-path="url(#155aacd289)"><g clip-rule="nonzero" clip-path="url(#65e62550c0)"><g clip-rule="nonzero" clip-path="url(#c565670adb)"><path style=" stroke:none;fill-rule:nonzero;fill:#ffffff;fill-opacity:1;" d="M 222.101562 230.40625 C 221.722656 229.828125 221.457031 229.117188 220.953125 228.707031 C 216.304688 224.910156 211.210938 221.847656 205.675781 219.527344 C 200.695312 217.40625 195.308594 216.347656 189.886719 215.726562 C 189.019531 215.601562 188.148438 215.535156 187.273438 215.539062 C 181.21875 215.761719 175.425781 214.425781 169.808594 212.382812 C 168.085938 211.753906 167.414062 213.433594 166.035156 213.386719 C 165.601562 213.371094 165.570312 214.1875 165.730469 214.691406 C 166.105469 215.859375 166.546875 216.9375 167.476562 217.863281 C 173.417969 223.789062 178.949219 230.144531 185.613281 235.320312 C 186.582031 236.074219 187.5625 236.867188 188.664062 237.367188 C 192.484375 239.105469 195.746094 241.894531 199.777344 243.234375 C 200.46875 243.464844 200.5625 244.382812 199.960938 244.925781 C 199.0625 245.753906 198.234375 246.867188 197.152344 247.246094 C 193.679688 248.472656 190.679688 250.71875 187.039062 251.578125 C 183.976562 252.304688 181.011719 253.433594 177.988281 254.335938 C 175.304688 255.140625 172.617188 255.914062 169.742188 255.675781 C 169.359375 255.644531 168.738281 256.101562 168.570312 256.488281 C 168.421875 256.992188 168.480469 257.472656 168.746094 257.925781 C 169.707031 259.433594 170.96875 260.625 172.527344 261.496094 C 178.746094 265.195312 185.589844 266.699219 192.6875 266.28125 C 200.605469 265.816406 208.109375 263.503906 215.34375 260.144531 C 218.96875 258.457031 222.507812 256.542969 226.375 255.308594 C 230.671875 253.933594 234.941406 253.796875 239.339844 254.410156 C 239.957031 254.472656 240.527344 254.671875 241.042969 255.015625 C 241.558594 255.359375 241.964844 255.804688 242.261719 256.347656 C 242.722656 257.097656 243.101562 257.886719 243.398438 258.714844 C 245.132812 264.066406 247.65625 269.066406 249.992188 274.15625 C 252.472656 279.558594 254.910156 284.976562 257.980469 290.078125 C 258.167969 290.378906 258.300781 290.699219 258.382812 291.042969 C 258.492188 291.539062 258.730469 292.171875 258.527344 292.523438 C 258.246094 293.019531 257.640625 292.660156 257.234375 292.429688 C 255.707031 291.566406 254.191406 290.703125 252.679688 289.785156 C 249.652344 287.960938 246.421875 286.628906 242.992188 285.785156 C 239.082031 284.808594 235.128906 284.019531 231.210938 283.085938 C 226.179688 281.886719 221.101562 282.402344 216.054688 282.769531 C 214.109375 282.949219 212.273438 283.507812 210.554688 284.4375 C 206.789062 286.425781 202.78125 287.570312 198.535156 287.878906 C 197.140625 287.996094 195.757812 288.257812 194.371094 288.472656 C 193.386719 288.621094 192.949219 289.398438 193.230469 290.3125 C 193.546875 291.351562 194.015625 292.320312 194.921875 292.902344 C 198.898438 295.453125 202.597656 298.445312 206.988281 300.355469 C 211.042969 302.128906 215.28125 303.144531 219.695312 303.410156 C 224.957031 303.726562 230.175781 303.40625 235.351562 302.445312 C 240.144531 301.574219 244.847656 300.132812 249.816406 300.050781 C 253.941406 299.984375 257.792969 300.953125 261.554688 302.421875 C 264.4375 303.554688 266.46875 305.828125 267.886719 308.464844 C 273.03125 318.003906 279.058594 327.015625 284.871094 336.152344 C 287.589844 340.425781 290.398438 344.683594 294.285156 348.0625 C 294.671875 348.390625 295.480469 348.855469 295.597656 348.738281 C 296.027344 348.324219 295.699219 347.804688 295.367188 347.378906 C 295.261719 347.242188 295.121094 347.125 295.027344 346.980469 C 290.574219 340.289062 286.0625 333.640625 281.695312 326.894531 C 277.433594 320.296875 273.371094 313.558594 269.699219 306.601562 C 267.902344 303.207031 266.207031 299.734375 264.125 296.515625 C 262.703125 294.316406 262.71875 292.332031 263.574219 290.066406 C 264.953125 286.417969 267.070312 283.210938 269.414062 280.140625 C 270.371094 278.890625 271.46875 277.742188 272.410156 276.484375 C 274.304688 273.964844 276.3125 271.519531 277.664062 268.625 C 278.035156 267.832031 278.363281 266.921875 278.976562 266.359375 C 282.078125 263.496094 282.898438 259.394531 284.816406 255.890625 C 285.265625 255.128906 285.554688 254.304688 285.679688 253.425781 C 286.15625 248.597656 286.949219 243.785156 286.226562 238.820312 C 285.671875 234.988281 285.003906 231.238281 283.800781 227.574219 C 283.625 226.980469 283.328125 226.449219 282.917969 225.988281 C 282.503906 225.523438 282.011719 225.171875 281.445312 224.925781 C 279.558594 224.058594 278.910156 224.136719 278.144531 225.917969 C 276.902344 228.824219 275.714844 231.742188 274.582031 234.675781 C 271.667969 242.199219 268.207031 249.464844 264.199219 256.464844 C 262.261719 259.859375 261.339844 263.632812 260.335938 267.332031 C 259.09375 271.898438 258.269531 276.570312 258.800781 281.363281 C 258.980469 282.734375 258.785156 284.050781 258.214844 285.3125 C 256.203125 281.253906 254.167969 277.457031 252.441406 273.546875 C 250.734375 269.714844 249.03125 265.886719 247.59375 261.925781 C 245.742188 256.859375 243.210938 252.023438 240.828125 247.160156 C 240.222656 245.902344 239.695312 244.613281 239.25 243.285156 C 238.457031 240.96875 237.640625 238.683594 236.347656 236.546875 C 234.71875 233.851562 234.019531 230.71875 232.640625 227.867188 C 231.0625 224.574219 230.046875 221.011719 228.320312 217.753906 C 227.570312 216.34375 227.570312 214.804688 227.542969 213.183594 C 227.453125 208.292969 229.125 203.914062 230.882812 199.523438 C 231.402344 198.222656 231.996094 196.949219 232.589844 195.683594 C 235.179688 190.183594 235.832031 184.414062 235.808594 178.367188 C 235.796875 172.398438 234.96875 166.542969 233.3125 160.808594 C 231.457031 154.375 228.480469 148.449219 224.828125 142.851562 C 224.542969 142.414062 224.15625 142.035156 223.5625 142.152344 C 223.390625 142.183594 223.226562 142.246094 223.078125 142.339844 C 222.929688 142.433594 222.800781 142.550781 222.695312 142.695312 C 222.589844 142.835938 222.515625 142.992188 222.46875 143.164062 C 222.425781 143.332031 222.410156 143.507812 222.429688 143.683594 C 222.851562 150.757812 220.84375 157.535156 220.023438 164.445312 C 219.324219 170.363281 218.105469 176.1875 217.347656 182.085938 C 216.746094 186.835938 217.574219 191.492188 218.519531 196.121094 C 218.828125 197.65625 219.277344 199.164062 219.863281 201.476562 C 218.773438 200.050781 218.082031 199.359375 217.621094 198.53125 C 214.773438 193.5 211.125 189.003906 208.058594 184.136719 C 203.75 177.296875 198.359375 171.320312 193.402344 165.015625 C 190.285156 161.046875 186.414062 157.671875 182.84375 154.074219 C 181.605469 152.820312 180.429688 151.605469 179.804688 149.867188 C 179.066406 147.808594 178.71875 145.855469 179.613281 143.75 C 180.429688 141.816406 180.96875 139.769531 181.808594 137.855469 C 183.847656 133.203125 185.910156 128.5625 188.113281 123.992188 C 190.203125 119.675781 191.28125 115.121094 191.34375 110.324219 C 191.472656 102.191406 190.1875 94.285156 187.496094 86.609375 C 186.582031 83.96875 185.238281 81.496094 184.035156 78.972656 C 183.824219 78.523438 183.359375 78.179688 182.972656 77.832031 C 182.210938 77.144531 180.628906 77.457031 180.304688 78.421875 C 179.910156 79.574219 179.65625 80.769531 179.359375 81.957031 C 178.222656 86.542969 177.285156 91.1875 175.917969 95.703125 C 173.785156 102.617188 172.902344 109.691406 173.273438 116.917969 C 173.414062 119.523438 173.15625 122.160156 172.960938 124.773438 C 172.816406 126.691406 172.71875 128.597656 172.675781 130.527344 C 172.582031 134.765625 172.859375 138.902344 174.238281 142.949219 C 174.34375 143.257812 174.242188 143.636719 174.25 143.980469 C 173.761719 143.894531 173.269531 143.832031 172.789062 143.714844 C 172.632812 143.679688 172.503906 143.507812 172.367188 143.40625 C 167.59375 139.574219 162.816406 135.734375 158.039062 131.886719 C 157.355469 131.339844 156.769531 130.621094 156.011719 130.222656 C 153.117188 128.710938 151.730469 126.148438 151.015625 123.15625 C 149.957031 118.738281 147.980469 114.519531 148.121094 109.847656 C 146.714844 106.378906 147.273438 102.570312 146.242188 99.042969 C 145.765625 97.425781 145.75 95.542969 143.566406 94.925781 C 143.097656 94.792969 142.757812 93.832031 142.554688 93.191406 C 139.5 83.621094 133.996094 75.660156 126.722656 68.835938 C 126.527344 68.652344 126.570312 68.21875 126.5 67.902344 C 126.773438 67.851562 127.105469 67.675781 127.296875 67.773438 C 128.082031 68.164062 128.808594 68.664062 129.582031 69.074219 C 129.824219 69.203125 130.25 69.3125 130.417969 69.191406 C 130.75 68.949219 130.675781 68.554688 130.347656 68.273438 C 127.207031 65.625 123.445312 64.195312 119.636719 62.902344 C 119.285156 62.78125 118.621094 63.460938 118.617188 63.867188 C 118.601562 65.863281 119.347656 67.683594 120.269531 69.339844 C 121.308594 71.214844 121.886719 73.207031 122.507812 75.210938 C 123.960938 79.902344 125.394531 84.597656 126.816406 89.300781 C 127.933594 93.011719 129.851562 96.359375 131.546875 99.800781 C 134.492188 105.761719 138.570312 111.042969 142.011719 116.710938 C 142.523438 117.625 142.976562 118.566406 143.375 119.539062 C 143.433594 119.667969 143.367188 119.992188 143.289062 120.023438 C 143.019531 120.101562 142.660156 120.230469 142.480469 120.117188 C 139.667969 118.324219 136.792969 116.632812 134.117188 114.660156 C 131.292969 112.574219 128.300781 110.757812 125.148438 109.214844 C 123.730469 108.519531 122.4375 107.570312 120.996094 106.945312 C 118.988281 106.054688 117.949219 104.707031 118.203125 102.453125 C 118.328125 101.339844 117.777344 100.460938 117.109375 99.601562 C 115.851562 97.980469 115.265625 95.78125 113.019531 95.050781 C 113.535156 96.351562 114.089844 97.605469 115.050781 98.679688 C 115.460938 99.144531 115.847656 100.300781 115.636719 100.496094 C 114.863281 101.226562 114.667969 100.085938 114.300781 99.746094 C 113.277344 98.804688 112.378906 97.722656 111.429688 96.699219 C 110.144531 95.292969 108.96875 93.730469 107.515625 92.515625 C 102.566406 88.367188 97.554688 84.320312 91.421875 81.898438 C 89 80.945312 86.699219 79.664062 84.1875 78.917969 C 83.742188 78.789062 83.417969 78.289062 83.035156 77.964844 C 80.773438 78.464844 78.730469 77.480469 76.496094 77.234375 C 76.574219 77.058594 76.683594 76.902344 76.816406 76.765625 C 76.953125 76.632812 77.105469 76.523438 77.28125 76.445312 C 77.453125 76.363281 77.636719 76.316406 77.828125 76.304688 C 78.019531 76.292969 78.207031 76.3125 78.390625 76.367188 C 79.976562 76.746094 81.855469 76.449219 82.96875 78.101562 C 83.621094 78.054688 84.277344 77.984375 84.929688 77.960938 C 85.757812 77.921875 86.585938 77.914062 87.414062 77.894531 C 87.140625 77.136719 86.464844 76.953125 85.796875 76.746094 C 81.773438 75.507812 77.679688 74.578125 73.515625 73.953125 C 68.839844 73.242188 64.203125 72.355469 59.789062 70.558594 C 59.125 70.328125 58.441406 70.1875 57.742188 70.132812 C 57.042969 70.046875 56.839844 70.644531 56.789062 71.117188 C 56.664062 72.316406 56.660156 73.40625 57.636719 74.472656 C 61.214844 78.335938 65.046875 81.929688 69.128906 85.253906 C 71.820312 87.488281 74.449219 89.835938 77.320312 91.824219 C 80.605469 94.101562 84.085938 96.132812 87.589844 98.089844 C 95.140625 102.320312 103.167969 105.246094 111.667969 106.863281 C 118.945312 108.257812 125.578125 111.421875 131.597656 115.820312 C 134.425781 117.875 137.421875 119.707031 140.296875 121.695312 C 142.160156 122.996094 143.941406 124.425781 145.746094 125.8125 C 145.808594 125.863281 145.792969 126.109375 145.726562 126.210938 C 145.660156 126.3125 145.453125 126.492188 145.359375 126.464844 C 142.851562 125.691406 140.261719 125.410156 137.6875 124.980469 C 132.601562 124.125 127.570312 124.75 122.523438 124.925781 C 120.796875 124.988281 119.066406 125.480469 117.390625 125.964844 C 110.832031 127.890625 104.300781 129.886719 97.742188 131.863281 C 97.410156 131.960938 97.078125 132.078125 96.75 132.199219 C 96.0625 132.464844 95.679688 133.3125 96.042969 133.863281 C 96.992188 135.328125 97.921875 136.796875 98.964844 138.214844 C 100.273438 139.976562 102.132812 140.976562 104.214844 141.496094 C 105.910156 141.917969 107.640625 142.335938 109.375 142.453125 C 113.390625 142.726562 117.421875 143.054688 121.421875 142.898438 C 125.730469 142.726562 129.976562 142.421875 134.050781 140.152344 C 139.0625 137.355469 144.429688 135.074219 150.25 134.273438 C 151.113281 134.15625 151.957031 133.875 152.816406 133.753906 C 153.863281 133.574219 154.898438 133.628906 155.921875 133.910156 C 156.945312 134.191406 157.859375 134.675781 158.667969 135.363281 C 165.71875 141.125 172.945312 146.667969 179.015625 153.542969 C 181.097656 155.898438 183.476562 157.992188 185.695312 160.234375 C 185.902344 160.445312 186.105469 160.886719 186.027344 161.125 C 185.742188 161.972656 185.179688 161.355469 184.832031 161.183594 C 179.097656 158.355469 173.03125 156.867188 166.636719 156.714844 C 161.355469 156.621094 156.183594 157.308594 151.113281 158.785156 C 147.910156 159.710938 144.71875 160.660156 141.515625 161.578125 C 138.996094 162.316406 136.507812 163.085938 133.820312 163.175781 C 132.289062 163.230469 130.765625 163.90625 129.265625 164.382812 C 128.203125 164.722656 127.996094 166.167969 128.890625 166.945312 C 131.277344 169.011719 133.75 170.882812 136.933594 171.675781 C 140.519531 172.585938 144.023438 173.734375 147.558594 174.730469 C 148.570312 175.015625 149.621094 175.386719 150.648438 175.34375 C 153.132812 175.234375 155.507812 175.851562 157.933594 176.132812 C 160.53125 176.429688 163.101562 176.492188 165.726562 175.746094 C 168.222656 175.039062 170.898438 174.992188 173.449219 174.441406 C 176.003906 173.890625 178.496094 172.878906 181.070312 172.402344 C 185.574219 171.566406 190.101562 171.570312 194.589844 172.730469 C 195.824219 173.050781 196.921875 173.5625 197.765625 174.472656 C 198.972656 175.742188 200.097656 177.078125 201.132812 178.492188 C 207.1875 187.054688 213.242188 195.625 218.449219 204.742188 C 221.832031 210.65625 224.953125 216.71875 228.15625 222.730469 C 228.535156 223.523438 228.84375 224.339844 229.085938 225.183594 C 230.832031 230.519531 233.117188 235.625 235.648438 240.625 C 236.347656 242.023438 236.765625 243.574219 237.246094 245.074219 C 237.667969 246.425781 238.15625 247.714844 239.046875 248.847656 C 239.335938 249.214844 239.589844 249.867188 239.070312 250.082031 C 238.78125 250.203125 238.078125 249.742188 237.800781 249.371094 C 236.867188 248.109375 236 246.800781 235.199219 245.453125 C 232.167969 240.292969 228.5 235.636719 224.195312 231.484375 C 223.5625 230.878906 222.886719 230.308594 221.929688 230.3125 C 221.863281 231.203125 222.933594 232.011719 222.230469 232.972656 C 220.746094 231.953125 219.328125 231.003906 217.917969 230.027344 C 217.347656 229.632812 217.136719 228.789062 217.5625 228.75 C 217.863281 228.683594 218.15625 228.703125 218.449219 228.804688 C 219.621094 229.453125 220.527344 230.667969 222.101562 230.40625 Z M 225.15625 188.902344 C 225.304688 188.808594 225.542969 188.742188 225.589844 188.613281 C 226.589844 185.597656 226.527344 182.453125 226.644531 179.335938 C 226.699219 178.097656 226.511719 176.757812 225.683594 175.851562 C 224.585938 174.644531 224.609375 173.398438 224.925781 172.007812 C 225.136719 171.15625 225.292969 170.292969 225.390625 169.421875 C 225.9375 163.527344 227.164062 157.632812 225.539062 151.707031 C 225.453125 151.410156 225.609375 151.023438 225.71875 150.699219 C 225.757812 150.585938 225.988281 150.5 226.144531 150.46875 C 226.296875 150.441406 226.519531 150.484375 226.5625 150.570312 C 227.765625 153.074219 228.964844 155.578125 230.132812 158.09375 C 230.285156 158.421875 230.34375 158.761719 230.3125 159.121094 C 230.011719 161.730469 230.867188 164.328125 230.269531 166.980469 C 229.925781 168.484375 229.972656 170.113281 230.066406 171.671875 C 230.332031 176.054688 229.941406 180.402344 229.453125 184.738281 C 229.144531 187.179688 228.472656 189.515625 227.441406 191.75 C 227.308594 192.039062 226.964844 192.238281 226.722656 192.480469 C 226.496094 192.253906 226.148438 192.066406 226.054688 191.777344 C 225.734375 190.777344 225.496094 189.75 225.226562 188.734375 C 225.015625 189 224.621094 189.289062 224.648438 189.519531 C 224.894531 191.238281 224.226562 192.925781 224.636719 194.6875 C 224.945312 196.007812 224.75 197.453125 224.722656 198.839844 C 224.714844 199.085938 224.433594 199.332031 224.277344 199.578125 C 224.027344 199.359375 223.8125 199.105469 223.632812 198.824219 C 223.433594 198.339844 223.285156 197.839844 223.191406 197.324219 C 221.800781 190.3125 222.28125 183.417969 224.578125 175.855469 C 225.167969 178.457031 224.929688 180.34375 224.945312 182.226562 C 224.96875 184.4375 224.394531 186.691406 225.15625 188.902344 Z M 182.359375 166.347656 L 182.433594 166.1875 C 182.1875 166.625 182.039062 167.300781 181.679688 167.449219 C 180.867188 167.792969 180.019531 167.960938 179.140625 167.960938 C 175.355469 167.867188 171.886719 169.003906 168.640625 170.75 C 165.359375 172.550781 161.847656 173.402344 158.105469 173.308594 C 152.253906 173.183594 146.722656 171.722656 141.410156 169.359375 C 140.796875 169.085938 140.273438 168.578125 139.75 168.125 C 139.542969 167.941406 139.273438 167.488281 139.363281 167.367188 C 139.570312 167.074219 139.847656 166.902344 140.203125 166.851562 C 142.652344 166.746094 145.058594 166.363281 147.421875 165.699219 C 151.453125 164.578125 155.515625 163.675781 159.640625 162.867188 C 164.863281 161.847656 170.046875 162.039062 175.25 162.324219 C 178.273438 162.503906 181.082031 163.371094 183.675781 164.929688 C 184.457031 165.398438 183.726562 165.753906 183.347656 165.996094 C 183.035156 166.152344 182.703125 166.269531 182.359375 166.347656 Z M 265.59375 277.917969 C 265.421875 277.953125 265.257812 278.011719 265.097656 278.089844 C 264.726562 278.332031 264.375 278.589844 264.007812 278.863281 C 263.894531 278.558594 263.652344 278.242188 263.683594 277.949219 C 264.304688 271.667969 265.804688 265.601562 268.191406 259.757812 C 269.820312 255.898438 271.21875 251.960938 272.390625 247.941406 C 273.367188 244.414062 274.636719 240.992188 276.199219 237.675781 C 277.023438 235.949219 277.96875 234.28125 278.914062 232.613281 C 279.144531 232.34375 279.4375 232.21875 279.792969 232.246094 C 280.140625 232.328125 280.378906 232.535156 280.511719 232.863281 C 280.953125 235.785156 281.40625 238.707031 281.703125 241.644531 C 281.855469 243.207031 281.839844 244.769531 281.65625 246.328125 C 281.085938 251.1875 280.195312 255.992188 278.65625 260.648438 C 277.96875 262.8125 277.015625 264.851562 275.800781 266.769531 C 273.328125 270.59375 270.339844 274.003906 267.683594 277.671875 C 267.484375 277.960938 267.226562 278.1875 266.914062 278.347656 C 266.382812 278.585938 265.929688 278.332031 265.570312 277.910156 Z M 218.652344 248.9375 L 218.707031 248.824219 C 219.738281 250.0625 221.226562 249.703125 222.523438 249.769531 C 223.820312 249.839844 225.152344 249.710938 226.511719 250.761719 C 222.980469 251.882812 219.679688 253.011719 216.328125 253.953125 C 214.273438 254.53125 212.4375 255.308594 210.789062 256.742188 C 207.980469 259.175781 204.808594 260.964844 201.269531 262.101562 C 196.835938 263.507812 192.148438 264.230469 187.363281 263.808594 C 183.308594 263.449219 179.441406 262.644531 175.875 260.617188 C 175.605469 260.464844 175.441406 260.128906 175.238281 259.875 C 175.503906 259.671875 175.785156 259.28125 176.027344 259.308594 C 179.804688 259.683594 183.226562 258.097656 186.769531 257.296875 C 187.925781 257.035156 189.027344 256.367188 190.039062 255.707031 C 191.921875 254.472656 193.785156 253.222656 195.585938 251.835938 C 200.195312 248.28125 205.558594 246.191406 211.167969 244.714844 C 213.894531 243.957031 216.648438 243.828125 219.433594 244.324219 C 223.0625 244.984375 226.601562 245.910156 229.828125 247.761719 C 230.855469 248.351562 232.148438 248.535156 232.824219 249.675781 C 231.523438 250.847656 230.210938 249.761719 228.917969 249.65625 C 228.0625 249.585938 227.253906 249.097656 226.398438 248.988281 C 223.816406 248.660156 221.238281 247.902344 218.652344 248.9375 Z M 175.71875 220.472656 C 175.785156 220.308594 175.878906 220.160156 175.992188 220.027344 C 176.121094 219.902344 176.273438 219.84375 176.457031 219.855469 C 178.792969 220.65625 181.242188 220.71875 183.660156 220.992188 C 192.738281 222.023438 201.515625 224.210938 209.902344 227.882812 C 211.1875 228.4375 212.425781 229.085938 213.609375 229.835938 C 215.371094 230.96875 217.0625 232.207031 218.742188 233.457031 C 219.136719 233.746094 219.722656 234.359375 219.640625 234.644531 C 219.078125 236.363281 220.351562 236.699219 221.398438 237.292969 C 223.21875 238.328125 225.019531 239.402344 226.796875 240.515625 C 227.011719 240.648438 227.121094 241.085938 227.128906 241.386719 C 227.132812 241.855469 226.84375 241.914062 226.371094 241.78125 C 220.25 240.035156 214.050781 239.324219 207.714844 240.335938 C 207.023438 240.457031 206.332031 240.535156 205.628906 240.566406 C 205.105469 240.597656 204.589844 240.535156 204.089844 240.371094 C 200.164062 238.886719 196.191406 237.472656 192.769531 234.933594 C 191.363281 233.894531 189.859375 232.949219 188.617188 231.734375 C 186.796875 229.945312 184.464844 229.304688 182.230469 228.398438 C 181.296875 225.871094 179.546875 224.011719 177.421875 222.425781 C 176.765625 221.898438 176.296875 221.121094 175.730469 220.46875 Z M 199.148438 292.5 C 199.320312 292.246094 199.457031 291.800781 199.667969 291.769531 C 202.074219 291.371094 204.535156 291.214844 206.898438 290.652344 C 212.859375 289.285156 218.90625 288.5 224.9375 287.566406 C 232.015625 286.46875 238.863281 286.855469 245.542969 289.445312 C 246.390625 289.777344 247.507812 289.640625 247.992188 290.925781 C 248.476562 292.210938 250.046875 291.851562 251.078125 292.375 C 252.003906 292.84375 253.0625 293.058594 254.019531 293.488281 C 254.652344 293.792969 255.234375 294.175781 255.773438 294.625 C 256.035156 294.839844 256.160156 295.113281 256.152344 295.449219 C 256.019531 295.765625 255.785156 295.957031 255.449219 296.019531 C 253.1875 295.886719 250.929688 295.667969 248.667969 295.515625 C 245.007812 295.273438 241.339844 295.105469 237.710938 295.734375 C 231.691406 296.773438 225.691406 297.945312 219.679688 299.035156 C 212.757812 300.292969 206.460938 299.117188 201.136719 294.199219 C 200.625 293.730469 200.019531 293.367188 199.472656 292.921875 C 199.351562 292.792969 199.246094 292.652344 199.160156 292.5 Z M 63.640625 76.367188 C 68.769531 78.058594 73.902344 79.074219 79.011719 80.136719 C 86.992188 81.800781 94.28125 84.882812 100.71875 89.976562 C 104.433594 92.914062 107.785156 96.21875 111.042969 99.621094 C 111.257812 99.902344 111.40625 100.21875 111.480469 100.566406 C 111.523438 100.707031 111.480469 100.988281 111.386719 101.039062 C 111.132812 101.175781 110.734375 101.371094 110.582031 101.277344 C 109.433594 100.5 108.328125 99.660156 107.214844 98.835938 C 106.402344 101.472656 104.691406 99.605469 103.527344 99.414062 C 100.59375 98.925781 97.710938 98.25 94.867188 97.386719 C 92.878906 96.78125 91.050781 95.671875 89.097656 94.929688 C 84.992188 93.371094 81.019531 91.484375 77.546875 88.835938 C 72.601562 85.050781 67.667969 81.230469 63.640625 76.367188 Z M 147.839844 131.253906 C 144.398438 132.265625 141.546875 133.101562 138.695312 133.9375 C 136.023438 134.738281 133.382812 135.496094 131.003906 137.144531 C 129.019531 138.511719 126.355469 138.617188 124.328125 140.09375 C 124.089844 140.265625 123.65625 140.195312 123.3125 140.222656 C 115.960938 140.8125 109.117188 139.09375 102.65625 135.675781 C 102.355469 135.480469 102.171875 135.207031 102.109375 134.855469 C 102.03125 134.253906 102.527344 134.011719 103.015625 133.828125 C 108.765625 131.636719 114.75 130.570312 120.878906 130.171875 C 125.398438 129.875 129.90625 129.429688 134.421875 129.109375 C 136.507812 128.957031 138.601562 128.957031 140.59375 129.796875 C 139.96875 130.5625 139.089844 130.605469 138.222656 130.5625 C 136.546875 130.480469 134.898438 130.648438 133.273438 131.066406 C 131.644531 131.484375 130.117188 132.132812 128.6875 133.007812 C 125.289062 135.082031 121.722656 135.03125 118.082031 134.957031 C 116.695312 134.929688 115.3125 134.589844 113.929688 134.390625 C 113.324219 134.300781 112.734375 134.722656 112.96875 135.078125 C 113.136719 135.378906 113.351562 135.640625 113.613281 135.859375 C 115.003906 136.738281 116.617188 136.757812 118.167969 136.832031 C 122.832031 137.050781 127.132812 135.738281 131.230469 133.605469 C 132.148438 133.128906 133.175781 132.382812 134.097656 132.476562 C 136.835938 132.71875 139.242188 131.644531 141.773438 131.039062 C 143.621094 130.570312 145.515625 130.027344 147.839844 131.253906 Z M 185.679688 88.730469 C 186.519531 91.375 186.941406 93.398438 186.84375 95.539062 C 186.558594 101.667969 185.660156 107.675781 183.5625 113.46875 C 183.453125 113.769531 183.136719 113.992188 182.902344 114.242188 C 182.6875 113.996094 182.382812 113.78125 182.277344 113.496094 C 182.128906 112.992188 182.011719 112.484375 181.933594 111.964844 C 181.816406 111.441406 181.515625 111.007812 180.96875 111.054688 C 180.738281 111.074219 180.40625 111.507812 180.371094 111.8125 C 179.65625 116.804688 178.992188 121.808594 178.285156 126.796875 C 178.140625 127.8125 177.871094 128.808594 177.660156 129.816406 C 176.292969 129.207031 176.640625 127.820312 176.351562 126.773438 C 175.847656 124.996094 175.652344 123.183594 175.761719 121.339844 C 175.871094 119.496094 176.285156 117.722656 177 116.019531 C 177.722656 114.242188 178.542969 112.476562 179.011719 110.625 C 180.296875 105.5625 181.421875 100.453125 182.605469 95.359375 C 183.039062 93.488281 183.324219 91.621094 183.160156 89.675781 C 183.054688 88.5 183.4375 87.285156 183.628906 86.09375 C 183.640625 86.015625 183.898438 85.941406 184.046875 85.933594 C 184.210938 85.917969 184.363281 85.957031 184.5 86.050781 C 185.476562 86.929688 185.496094 88.230469 185.679688 88.730469 Z M 140.746094 104.261719 C 135.589844 96.429688 131.28125 88.296875 128.363281 79.484375 C 128.171875 78.800781 127.878906 78.171875 127.476562 77.589844 C 126.25 76.003906 126.0625 74.023438 125.332031 72.253906 C 125.257812 72.074219 125.472656 71.75 125.628906 71.53125 C 125.664062 71.480469 125.980469 71.550781 126.109375 71.640625 C 128.128906 73.105469 129.410156 75.242188 131.015625 77.078125 C 137.140625 84.085938 140.660156 92.464844 143.300781 101.203125 C 144.539062 105.28125 144.902344 109.625 145.675781 113.84375 C 144.394531 111.148438 143.371094 108.359375 142.601562 105.472656 C 140.976562 99.007812 137.5625 93.191406 135.945312 86.738281 C 135.867188 86.582031 135.753906 86.457031 135.609375 86.363281 C 135.476562 86.265625 135.34375 86.175781 135.199219 86.09375 C 135.128906 86.253906 134.972656 86.433594 135 86.570312 C 135.8125 90.328125 136.816406 94.074219 138.605469 97.449219 C 139.785156 99.667969 140.375 101.921875 140.746094 104.261719 Z M 188.207031 104.613281 C 188.472656 105.355469 188.757812 105.824219 188.796875 106.316406 C 189.179688 110.898438 188.777344 115.40625 186.941406 119.648438 C 186.234375 121.28125 186.023438 123.019531 185.4375 124.636719 C 184.855469 126.253906 183.660156 127.554688 182.859375 129.070312 C 182.128906 130.445312 181.574219 131.921875 180.917969 133.34375 C 180.824219 133.503906 180.6875 133.601562 180.507812 133.628906 C 180.097656 133.667969 179.871094 133.449219 179.949219 133.082031 C 180.875 128.109375 181.953125 123.175781 183.617188 118.382812 C 185.167969 113.945312 186.601562 109.464844 188.207031 104.613281 Z M 179.15625 217.351562 C 179.15625 217.226562 179.109375 217.078125 179.164062 217 C 179.257812 216.871094 179.425781 216.703125 179.546875 216.710938 C 181.269531 216.875 182.988281 217.210938 184.714844 217.230469 C 191.234375 217.273438 197.480469 218.667969 203.65625 220.648438 C 207.351562 221.835938 210.640625 223.714844 213.808594 225.871094 C 213.992188 225.992188 213.941406 226.453125 213.996094 226.753906 C 213.707031 226.757812 213.378906 226.863281 213.15625 226.75 C 206.261719 223.285156 199.011719 220.882812 191.414062 219.535156 C 188.679688 219.054688 185.90625 218.824219 183.160156 218.433594 C 181.785156 218.226562 180.355469 218.191406 179.15625 217.351562 Z M 232.015625 169.546875 C 232.949219 170.003906 233.082031 170.6875 233.164062 171.3125 C 233.582031 174.574219 233.890625 177.84375 233.71875 181.136719 C 233.359375 188.273438 230.210938 194.527344 227.394531 200.882812 C 227.308594 200.992188 227.199219 201.035156 227.0625 201.019531 C 226.917969 200.949219 226.707031 200.796875 226.707031 200.675781 C 226.679688 198.722656 227.3125 196.941406 228.039062 195.148438 C 230.011719 190.289062 231.453125 185.320312 231.46875 179.984375 C 231.484375 176.539062 231.816406 173.097656 232.015625 169.546875 Z M 180.28125 86.097656 C 181.164062 86.960938 180.988281 87.835938 180.917969 88.707031 C 180.460938 94.460938 179.152344 100.058594 177.71875 105.632812 C 177.117188 107.984375 176.265625 110.277344 175.503906 112.59375 C 175.359375 113.035156 175.0625 113.152344 174.789062 112.941406 C 174.667969 112.847656 174.511719 112.671875 174.523438 112.546875 C 174.777344 109.78125 174.835938 106.972656 175.375 104.261719 C 176.597656 98.140625 178.507812 92.191406 180.28125 86.097656 Z M 221.050781 192.574219 C 220.210938 190.386719 219.664062 189.144531 219.734375 187.699219 C 219.972656 183.003906 220.179688 178.3125 221.152344 173.691406 C 221.402344 172.496094 221.898438 171.285156 221.839844 170.101562 C 221.652344 166.539062 222.867188 163.210938 223.359375 159.773438 C 223.398438 159.511719 223.675781 159.285156 223.84375 159.050781 C 224.050781 159.316406 224.410156 159.5625 224.441406 159.84375 C 224.742188 162.800781 224.605469 165.738281 224.042969 168.660156 C 223.296875 172.597656 222.578125 176.550781 221.753906 180.46875 C 221.039062 183.726562 220.839844 187.011719 221.160156 190.328125 C 221.195312 190.730469 221.125 191.160156 221.050781 192.574219 Z M 140.09375 109.105469 C 134.164062 101.949219 127.402344 88.273438 127.769531 81.765625 C 129.382812 87.625 132.074219 92.480469 134.824219 97.3125 C 136.191406 99.722656 137.625 102.105469 138.839844 104.589844 C 139.503906 105.953125 140.253906 107.378906 140.09375 109.105469 Z M 247.570312 297.171875 C 245.238281 297.855469 244.097656 298.402344 242.921875 298.496094 C 239.246094 298.785156 235.777344 299.90625 232.21875 300.746094 C 228.660156 301.585938 225.070312 301.53125 221.242188 301.351562 C 222.421875 300.308594 223.640625 300.09375 224.824219 299.863281 C 231.960938 298.460938 239.117188 297.136719 247.570312 297.171875 Z M 224.417969 284.222656 C 220.113281 286.203125 215.828125 285.820312 211.746094 286.535156 C 215.589844 284.433594 219.671875 283.726562 224.429688 284.222656 Z M 175.367188 131.847656 C 176.832031 135.382812 177.371094 138.105469 176.378906 141.433594 C 175.050781 138.433594 174.824219 135.722656 175.382812 131.84375 Z M 262.007812 270.839844 C 262.183594 271.117188 262.53125 271.410156 262.503906 271.664062 C 262.300781 273.648438 262.46875 275.707031 261.472656 277.550781 C 259.929688 275.554688 261.558594 273.625 261.621094 271.660156 C 261.632812 271.386719 261.875 271.121094 262.007812 270.839844 Z M 262.007812 270.839844 "/></g></g></g><g clip-rule="nonzero" clip-path="url(#693067e950)"><g clip-rule="nonzero" clip-path="url(#c6ba27aa5b)"><g clip-rule="nonzero" clip-path="url(#e1da339dc5)"><path style=" stroke:none;fill-rule:nonzero;fill:#ffffff;fill-opacity:1;" d="M 87.234375 77.832031 C 87.691406 78.671875 88.550781 78.898438 89.347656 79.097656 C 92.984375 80.046875 96.5 81.292969 99.769531 83.179688 C 100.53125 83.621094 101.34375 83.8125 102.207031 83.449219 C 100.664062 81.433594 98.332031 80.539062 96.125 79.828125 C 93.257812 78.902344 90.476562 77.226562 87.234375 77.832031 Z M 87.234375 77.832031 "/></g></g></g><g clip-rule="nonzero" clip-path="url(#478f7a4218)"><g clip-rule="nonzero" clip-path="url(#03b06a50df)"><g clip-rule="nonzero" clip-path="url(#8f8086314e)"><path style=" stroke:none;fill-rule:nonzero;fill:#ffffff;fill-opacity:1;" d="M 102.019531 83.351562 C 103.5 85.761719 105.726562 87.316406 108.109375 88.699219 C 106.347656 85.324219 105.480469 84.558594 102.019531 83.351562 Z M 102.019531 83.351562 "/></g></g></g><g clip-rule="nonzero" clip-path="url(#12f4d07f0b)"><g clip-rule="nonzero" clip-path="url(#0657b12c3c)"><g clip-rule="nonzero" clip-path="url(#a92a36aadb)"><path style=" stroke:none;fill-rule:nonzero;fill:#ffffff;fill-opacity:1;" d="M 209.277344 231.90625 C 209.074219 231.648438 208.910156 231.21875 208.65625 231.160156 C 203.242188 229.875 197.824219 228.621094 192.40625 227.402344 C 192.300781 227.375 192.046875 227.8125 191.945312 228.066406 C 191.90625 228.164062 192.082031 228.386719 192.210938 228.492188 C 192.472656 228.707031 192.75 229.007812 193.066406 229.078125 C 198.152344 230.128906 203.238281 231.15625 208.328125 232.15625 C 208.621094 232.210938 208.976562 231.953125 209.304688 231.839844 Z M 209.277344 231.90625 "/></g></g></g><g clip-rule="nonzero" clip-path="url(#b48ed39e23)"><g clip-rule="nonzero" clip-path="url(#8f785218ff)"><g clip-rule="nonzero" clip-path="url(#78af685b42)"><path style=" stroke:none;fill-rule:nonzero;fill:#ffffff;fill-opacity:1;" d="M 209.3125 231.859375 C 210.835938 233.851562 213.195312 233.832031 215.332031 234.324219 C 215.519531 234.367188 215.804688 233.953125 216.0625 233.746094 C 215.949219 233.613281 215.820312 233.5 215.671875 233.410156 C 214.042969 232.808594 212.441406 232.167969 210.785156 231.664062 C 210.355469 231.53125 209.792969 231.820312 209.289062 231.914062 Z M 209.3125 231.859375 "/></g></g></g><g clip-rule="nonzero" clip-path="url(#b384c4f3db)"><g clip-rule="nonzero" clip-path="url(#5ae590d9f7)"><g clip-rule="nonzero" clip-path="url(#f730298375)"><path style=" stroke:none;fill-rule:nonzero;fill:#ffffff;fill-opacity:1;" d="M 218.652344 248.9375 C 218.402344 248.71875 218.136719 248.320312 217.898438 248.339844 C 215.824219 248.507812 213.75 248.738281 211.695312 248.996094 C 211.167969 249.046875 210.664062 249.183594 210.179688 249.40625 C 204.898438 252 199.621094 254.613281 194.355469 257.246094 C 194.234375 257.308594 194.125 257.675781 194.140625 257.691406 C 194.40625 257.859375 194.753906 258.175781 194.972656 258.109375 C 196.636719 257.589844 198.527344 257.335938 199.867188 256.359375 C 204.953125 252.667969 210.8125 251.054688 216.726562 249.496094 C 217.398438 249.316406 218.054688 249.058594 218.714844 248.839844 Z M 218.652344 248.9375 "/></g></g></g><g clip-rule="nonzero" clip-path="url(#e21d938759)"><g clip-rule="nonzero" clip-path="url(#885e6e3924)"><g clip-rule="nonzero" clip-path="url(#907d5a10df)"><path style=" stroke:none;fill-rule:nonzero;fill:#ffffff;fill-opacity:1;" d="M 242.445312 290.804688 C 240.476562 290.335938 238.503906 290.480469 236.449219 290.738281 C 232.453125 291.234375 228.546875 292.144531 224.585938 292.785156 C 222.433594 293.128906 220.742188 294.207031 218.894531 295.082031 C 218.773438 295.140625 218.738281 295.382812 218.664062 295.542969 C 218.820312 295.613281 218.976562 295.738281 219.140625 295.75 C 219.652344 295.753906 220.210938 295.828125 220.671875 295.664062 C 227.308594 293.324219 234.167969 292.132812 241.160156 291.558594 C 241.65625 291.515625 242.238281 291.433594 242.445312 290.804688 Z M 242.445312 290.804688 "/></g></g></g><g clip-rule="nonzero" clip-path="url(#04fc70daf0)"><g clip-rule="nonzero" clip-path="url(#6dd5f52b0d)"><g clip-rule="nonzero" clip-path="url(#2ca4461353)"><path style=" stroke:none;fill-rule:nonzero;fill:#ffffff;fill-opacity:1;" d="M 92.75 88.339844 C 93.175781 88.835938 93.636719 89.292969 94.136719 89.714844 C 95.519531 90.742188 96.953125 91.691406 98.363281 92.679688 C 98.785156 92.972656 99.03125 92.882812 99.085938 92.382812 C 99.101562 92.230469 99.117188 92 99.03125 91.925781 C 97.242188 90.347656 95.640625 88.523438 93.359375 87.597656 C 93.207031 87.566406 93.074219 87.601562 92.964844 87.710938 C 92.871094 87.824219 92.851562 88.019531 92.75 88.339844 Z M 92.75 88.339844 "/></g></g></g><g clip-rule="nonzero" clip-path="url(#f8cdc95ce9)"><g clip-rule="nonzero" clip-path="url(#104b8f02c7)"><g clip-rule="nonzero" clip-path="url(#16d82cc5dc)"><path style=" stroke:none;fill-rule:nonzero;fill:#ffffff;fill-opacity:1;" d="M 265.574219 277.910156 C 266.914062 277.199219 267.203125 275.734375 267.855469 274.566406 C 269.289062 271.988281 270.578125 269.335938 272.410156 266.996094 C 273.828125 265.183594 274.417969 263.003906 274.75 260.761719 C 274.765625 260.671875 274.550781 260.511719 274.414062 260.441406 C 274.285156 260.375 274.152344 260.367188 274.019531 260.421875 C 273.863281 260.515625 273.753906 260.644531 273.683594 260.8125 C 271.847656 265.527344 268.644531 269.5 266.507812 274.050781 C 265.933594 275.269531 264.914062 276.402344 265.59375 277.921875 Z M 265.574219 277.910156 "/></g></g></g><g clip-rule="nonzero" clip-path="url(#2166dc420d)"><g clip-rule="nonzero" clip-path="url(#868a77b7e3)"><g clip-rule="nonzero" clip-path="url(#fb5df05db8)"><path style=" stroke:none;fill-rule:nonzero;fill:#ffffff;fill-opacity:1;" d="M 275.425781 255.203125 C 275.566406 255.402344 275.730469 255.582031 275.910156 255.746094 C 276.011719 255.8125 276.257812 255.851562 276.292969 255.800781 C 277.578125 254.0625 278.25 252.144531 278.015625 249.953125 C 278.003906 249.839844 277.753906 249.691406 277.601562 249.667969 C 277.4375 249.691406 277.324219 249.777344 277.253906 249.921875 C 276.617188 251.71875 276.003906 253.523438 275.425781 255.203125 Z M 275.425781 255.203125 "/></g></g></g><g clip-rule="nonzero" clip-path="url(#407e8c64a3)"><g clip-rule="nonzero" clip-path="url(#33f3fcdfae)"><g clip-rule="nonzero" clip-path="url(#7d1abaceaa)"><path style=" stroke:none;fill-rule:nonzero;fill:#ffffff;fill-opacity:1;" d="M 182.359375 166.347656 C 179.6875 164.972656 176.742188 164.683594 173.835938 164.398438 C 170.371094 164.0625 166.9375 163.933594 163.46875 165 C 161.363281 165.644531 158.988281 165.417969 156.734375 165.558594 C 154.480469 165.699219 152.242188 165.816406 149.820312 167.5 C 154.210938 167.976562 157.992188 167.335938 161.734375 166.734375 C 166.921875 165.894531 172.078125 165.429688 177.296875 166.277344 C 178.984375 166.546875 180.738281 167.113281 182.421875 166.191406 Z M 182.359375 166.347656 "/></g></g></g></g></svg>